<?xml version="1.0" standalone="no"?>
<!DOCTYPE svg PUBLIC "-//W3C//DTD SVG 20010904//EN"
 "http://www.w3.org/TR/2001/REC-SVG-20010904/DTD/svg10.dtd">
<svg version="1.0" xmlns="http://www.w3.org/2000/svg"
 width="1941.000000pt" height="573.000000pt" viewBox="0 0 1941.000000 573.000000"
 preserveAspectRatio="xMidYMid meet">

<g transform="translate(0.000000,573.000000) scale(0.100000,-0.100000)"
fill="#ffffff" stroke="none">
<path d="M6020 5275 l0 -455 105 0 105 0 0 125 0 125 98 0 97 -1 84 -124 85
-125 114 0 113 0 -57 83 c-32 45 -78 111 -102 145 -36 51 -42 66 -31 73 8 5
17 9 22 9 17 0 100 86 120 125 19 34 22 56 22 145 0 90 -3 111 -22 147 -48 88
-140 152 -253 173 -29 5 -153 10 -276 10 l-224 0 0 -455z m490 263 c95 -48
109 -180 28 -255 -34 -31 -90 -43 -205 -43 l-103 0 0 160 0 160 118 0 c102 0
124 -3 162 -22z"/>
<path d="M2643 5663 c-11 -21 -24 -53 -28 -70 -3 -18 -10 -33 -13 -33 -4 0
-43 18 -87 40 -77 39 -83 40 -179 40 -96 0 -103 -2 -181 -40 -121 -58 -173
-104 -260 -230 -106 -153 -170 -220 -252 -262 -121 -63 -220 -72 -316 -30
-172 76 -221 290 -100 431 43 50 80 71 128 71 70 0 114 -41 115 -106 0 -31 -6
-46 -27 -66 -39 -36 -65 -41 -109 -23 -20 8 -39 13 -42 10 -12 -12 21 -86 45
-102 37 -25 117 -21 155 7 l31 23 34 -42 c19 -22 43 -41 53 -41 29 0 50 39 50
92 0 39 4 49 23 59 32 17 37 29 30 74 -9 63 -19 75 -61 75 -26 0 -54 11 -97
40 -88 59 -134 74 -204 67 -74 -6 -146 -44 -185 -97 -17 -22 -32 -40 -36 -40
-3 0 -16 32 -29 70 -26 77 -42 98 -58 78 -13 -17 -43 -107 -43 -130 0 -28 -31
-21 -70 16 -45 44 -155 104 -222 122 -115 30 -267 -7 -361 -88 -63 -53 -92
-100 -107 -174 -17 -82 -69 -170 -140 -238 -33 -32 -60 -60 -60 -63 0 -12 136
9 177 27 51 23 63 19 98 -26 14 -18 47 -46 73 -61 41 -24 57 -28 127 -28 85 0
91 3 199 73 82 53 170 41 234 -32 40 -46 62 -42 62 11 0 95 -56 171 -142 193
-24 6 -49 13 -55 15 -8 3 -13 22 -13 49 0 55 -17 96 -41 96 -10 0 -34 -19 -54
-42 -31 -37 -38 -41 -53 -30 -30 22 -81 42 -105 42 -40 0 -91 -41 -107 -87
-17 -49 -10 -61 22 -39 12 9 40 16 61 16 74 0 123 -88 81 -148 -52 -75 -167
-66 -234 18 -46 58 -60 101 -60 182 1 115 47 191 146 241 97 49 205 44 322
-15 82 -41 177 -142 277 -292 42 -64 99 -139 126 -166 105 -105 258 -145 392
-101 131 42 228 114 308 226 112 158 174 230 234 270 188 126 397 99 493 -64
24 -40 27 -56 27 -131 0 -92 -12 -129 -62 -186 -37 -43 -83 -64 -136 -64 -35
0 -49 6 -75 31 -22 21 -32 41 -32 61 0 36 24 84 49 98 29 15 87 12 101 -5 20
-24 30 -18 30 19 0 92 -118 134 -204 73 l-29 -20 -36 41 c-20 23 -44 42 -53
42 -25 0 -48 -51 -48 -103 0 -47 -10 -57 -52 -57 -33 0 -91 -38 -118 -77 -20
-30 -25 -49 -25 -101 0 -36 5 -67 10 -68 6 -2 20 11 32 30 12 19 42 43 68 56
66 32 124 25 195 -24 30 -21 70 -44 89 -52 50 -21 149 -18 196 6 22 11 44 20
51 20 6 0 21 -26 33 -59 12 -32 28 -65 37 -72 14 -11 19 -10 34 9 10 12 26 44
36 70 9 26 20 51 24 55 4 4 29 -3 55 -17 37 -20 63 -26 110 -26 72 0 109 13
185 67 49 34 62 38 116 38 67 0 115 -24 150 -77 10 -15 24 -26 29 -25 15 5 18
88 4 130 -17 50 -77 104 -126 112 -59 9 -68 18 -65 58 3 45 -22 107 -43 107
-18 0 -69 -46 -76 -69 -4 -11 -17 -9 -62 13 -43 22 -63 26 -89 21 -49 -11 -75
-32 -92 -76 -20 -49 -13 -66 20 -45 56 37 132 8 154 -59 9 -29 9 -39 -6 -63
-62 -106 -206 -74 -273 60 -89 178 18 373 220 402 99 14 251 -44 339 -130 20
-18 58 -66 85 -105 100 -141 143 -195 186 -230 51 -42 165 -102 224 -118 86
-23 197 -7 291 42 54 28 134 118 219 246 100 150 149 205 233 259 186 120 399
78 483 -96 17 -35 20 -57 18 -125 -4 -73 -8 -88 -38 -135 -44 -69 -81 -95
-147 -100 -50 -4 -56 -2 -89 31 -49 49 -46 105 9 149 26 22 85 23 112 3 30
-23 37 -18 31 21 -7 41 -29 69 -69 90 -40 21 -76 17 -127 -13 -43 -25 -45 -25
-55 -8 -18 32 -58 65 -78 65 -23 0 -40 -41 -40 -98 0 -24 -5 -45 -11 -47 -7
-2 -32 -9 -56 -15 -85 -22 -140 -99 -141 -195 0 -59 16 -64 56 -16 44 51 86
71 147 71 34 0 59 -10 122 -50 88 -56 122 -65 201 -57 67 7 130 42 177 99 l35
41 51 -22 c60 -25 181 -41 181 -22 0 6 -4 11 -8 11 -5 0 -31 22 -58 50 -58 59
-124 164 -124 197 0 58 -34 126 -91 185 -96 98 -229 142 -358 119 -80 -15
-198 -76 -259 -135 -39 -37 -45 -39 -56 -24 -6 9 -28 18 -47 20 -44 4 -48 33
-5 33 16 0 31 5 33 12 5 14 -34 93 -46 93 -5 0 -17 -21 -26 -47 -32 -91 -37
-103 -43 -103 -2 0 -26 21 -51 46 -90 89 -199 108 -306 54 -33 -17 -78 -42
-100 -55 -32 -20 -52 -25 -95 -23 -53 1 -55 1 -52 -23 1 -16 -7 -34 -23 -49
-14 -13 -25 -29 -25 -35 0 -14 36 -31 84 -40 38 -8 39 -10 36 -62 -2 -41 25
-93 49 -93 11 0 35 19 54 42 35 41 36 42 56 24 28 -26 89 -37 134 -25 43 11
77 56 77 101 l0 28 -40 -21 c-56 -30 -103 -11 -137 55 -19 36 -11 64 26 100
44 42 106 47 165 12 62 -37 116 -142 116 -228 0 -180 -178 -311 -361 -268
-136 32 -251 125 -364 295 -82 124 -144 182 -254 238 -92 47 -93 47 -192 47
-88 0 -107 -3 -163 -29 -35 -16 -66 -34 -70 -40 -14 -22 -26 -10 -61 59 -19
39 -41 70 -48 70 -7 0 -23 -17 -34 -37z"/>
<path d="M8490 5595 l0 -85 -55 0 -55 0 0 -80 0 -80 54 0 54 0 4 -192 c3 -165
6 -198 22 -227 42 -78 125 -121 231 -121 59 0 154 25 160 43 8 21 -42 142 -57
138 -7 -3 -34 -7 -60 -9 -40 -3 -51 0 -73 22 -25 25 -25 27 -25 186 l0 160 85
0 85 0 0 80 0 80 -85 0 -85 0 0 85 0 85 -100 0 -100 0 0 -85z"/>
<path d="M12980 5595 l0 -85 -55 0 -55 0 0 -80 0 -80 54 0 54 0 4 -192 c3
-165 6 -198 22 -227 42 -78 125 -121 231 -121 59 0 154 25 160 43 8 21 -42
142 -57 138 -7 -3 -34 -7 -60 -9 -40 -3 -51 0 -73 22 -25 25 -25 27 -25 186
l0 160 85 0 85 0 0 80 0 80 -85 0 -85 0 0 85 0 85 -100 0 -100 0 0 -85z"/>
<path d="M1817 5615 c-36 -45 -34 -57 6 -53 28 3 32 7 35 37 5 49 -10 55 -41
16z"/>
<path d="M3495 5638 c-11 -27 -1 -53 19 -53 27 0 30 18 7 46 -17 21 -20 22
-26 7z"/>
<path d="M16711 5591 c-12 -16 -21 -36 -21 -45 0 -21 -21 -66 -32 -66 -5 0
-25 11 -46 24 -67 44 -126 58 -232 54 -90 -3 -103 -6 -175 -43 -101 -51 -172
-117 -247 -228 -151 -224 -277 -312 -448 -312 -87 1 -145 24 -204 81 -56 54
-79 108 -80 184 -2 170 138 305 254 245 16 -8 36 -25 44 -37 53 -76 -42 -186
-123 -144 -40 21 -41 21 -41 -14 0 -18 11 -42 28 -61 26 -29 34 -32 85 -31 41
0 64 6 83 21 30 24 44 20 66 -19 9 -16 28 -32 43 -36 36 -9 54 18 55 83 0 48
2 54 31 69 31 15 31 17 25 67 -9 64 -19 77 -61 77 -21 0 -52 13 -85 35 -89 60
-118 70 -200 70 -64 0 -82 -4 -122 -27 -25 -15 -60 -46 -78 -68 -36 -45 -45
-44 -56 3 -10 47 -47 118 -59 114 -5 -2 -18 -30 -29 -63 -37 -117 -29 -112
-89 -61 -182 155 -390 175 -561 53 -74 -53 -112 -107 -130 -187 -9 -38 -30
-95 -47 -125 -37 -64 -112 -150 -139 -159 -11 -4 -20 -11 -20 -16 0 -21 147
-1 204 28 29 15 30 15 77 -36 63 -65 99 -83 181 -89 59 -4 73 -1 130 26 35 17
75 41 90 53 18 15 46 24 82 27 64 5 112 -17 159 -74 16 -19 33 -32 38 -29 14
9 11 112 -5 149 -19 45 -69 81 -136 98 -55 14 -55 15 -52 50 4 47 -21 108 -45
108 -10 0 -34 -18 -54 -41 l-36 -42 -29 22 c-70 51 -161 31 -195 -43 -10 -23
-19 -47 -19 -53 0 -18 25 -16 40 2 18 22 82 19 112 -5 61 -47 57 -120 -7 -160
-81 -50 -175 -8 -238 105 -18 32 -22 56 -22 125 0 74 3 91 27 130 70 120 199
171 338 136 141 -36 238 -118 366 -311 125 -187 180 -240 297 -284 85 -31 168
-28 265 9 141 55 204 108 324 277 129 181 229 258 367 283 208 38 377 -125
340 -327 -29 -154 -180 -245 -271 -164 -27 24 -33 36 -33 70 0 80 90 130 153
85 30 -20 36 -13 28 30 -13 69 -102 112 -168 82 -18 -9 -41 -21 -51 -28 -16
-11 -22 -8 -53 30 -20 23 -43 42 -51 42 -27 0 -42 -33 -43 -87 0 -58 -7 -65
-71 -77 -79 -14 -132 -86 -132 -177 0 -33 2 -62 5 -65 3 -3 28 17 56 45 74 74
154 82 238 21 102 -73 213 -92 295 -49 43 22 69 20 69 -6 0 -8 4 -23 8 -33 48
-97 59 -101 95 -31 15 28 27 56 27 62 1 35 17 38 67 12 94 -47 199 -32 302 43
51 37 88 46 148 37 37 -5 55 -16 94 -56 26 -27 50 -49 53 -49 14 0 5 127 -12
160 -18 37 -70 77 -109 85 -78 16 -73 12 -73 59 0 59 -18 106 -40 106 -10 0
-34 -18 -53 -40 -37 -44 -48 -48 -67 -25 -7 8 -30 20 -52 25 -73 20 -143 -22
-155 -94 -6 -39 1 -44 31 -21 11 8 37 15 57 15 31 0 43 -6 68 -37 41 -50 40
-83 -4 -128 -31 -30 -42 -35 -85 -35 -63 0 -123 44 -165 120 -25 47 -29 66
-29 130 0 56 5 85 21 115 62 118 188 180 320 156 142 -27 254 -112 368 -281
76 -111 159 -197 228 -235 140 -77 255 -94 364 -54 112 42 173 98 274 251 156
238 252 320 409 349 197 36 366 -109 347 -297 -13 -123 -100 -224 -194 -224
-105 0 -151 102 -81 178 26 26 98 31 118 7 20 -24 30 -18 30 19 0 43 -46 92
-95 102 -38 7 -97 -9 -115 -32 -19 -22 -37 -17 -52 13 -7 15 -25 34 -40 43
-25 13 -29 13 -44 -2 -15 -14 -18 -34 -24 -130 0 -4 -20 -10 -45 -14 -56 -8
-116 -50 -138 -97 -18 -37 -23 -142 -8 -151 4 -3 22 12 39 33 59 73 151 92
227 47 22 -14 60 -36 85 -51 30 -18 65 -29 105 -32 91 -8 135 9 209 78 64 59
65 60 93 46 35 -18 122 -37 169 -37 l36 0 -65 63 c-65 63 -127 156 -127 191 0
11 -8 44 -17 75 -14 44 -32 70 -83 122 -102 102 -224 145 -350 121 -76 -14
-197 -74 -261 -131 -45 -39 -52 -42 -61 -28 -6 11 -22 17 -44 17 -28 0 -35 3
-32 18 3 12 12 16 31 14 21 -2 27 1 27 17 0 24 -30 91 -42 91 -10 0 -24 -28
-44 -86 -9 -27 -20 -53 -24 -57 -4 -5 -23 8 -41 28 -50 55 -110 86 -176 92
-77 7 -124 -7 -208 -62 -63 -42 -75 -46 -125 -45 -74 2 -72 3 -60 -20 8 -15 5
-25 -20 -53 -36 -41 -29 -51 47 -70 l48 -12 1 -45 c3 -117 50 -131 118 -36 13
19 14 19 45 -3 43 -31 131 -34 161 -6 27 25 50 68 50 95 0 25 -1 25 -44 -1
-31 -18 -40 -19 -72 -9 -39 13 -74 60 -74 100 0 33 24 66 60 85 76 40 165 -3
220 -106 61 -114 44 -232 -48 -324 -59 -58 -115 -80 -207 -79 -173 1 -294 87
-451 321 -69 103 -141 168 -242 219 -71 36 -84 39 -174 42 -107 4 -169 -10
-234 -54 -20 -14 -38 -23 -40 -21 -2 2 -18 32 -36 67 -18 35 -38 66 -44 68 -7
1 -21 -10 -33 -27z"/>
<path d="M15877 5535 c-32 -39 -29 -55 13 -55 31 0 44 27 33 68 -7 29 -12 27
-46 -13z"/>
<path d="M17556 5552 c-9 -27 3 -52 25 -52 25 0 25 32 0 54 -18 17 -19 17 -25
-2z"/>
<path d="M7195 5524 c-144 -35 -242 -124 -279 -253 -22 -74 -20 -136 5 -217
18 -57 31 -77 82 -129 75 -75 144 -105 262 -112 101 -7 177 9 245 50 83 50 84
57 20 122 -48 48 -56 53 -70 40 -47 -42 -160 -58 -242 -33 -22 6 -53 28 -73
50 -63 69 -67 68 224 68 l259 0 6 34 c11 56 -19 173 -58 232 -65 97 -153 145
-280 150 -45 1 -90 1 -101 -2z m173 -171 c34 -25 72 -80 72 -104 0 -18 -11
-19 -169 -19 l-170 0 9 29 c22 79 91 125 178 118 32 -2 63 -12 80 -24z"/>
<path d="M7932 5520 c-147 -31 -231 -140 -203 -264 22 -97 91 -140 271 -167
103 -15 140 -32 140 -62 0 -39 -32 -59 -102 -64 -70 -6 -162 13 -227 46 l-39
20 -32 -71 c-38 -85 -37 -86 75 -121 82 -25 271 -31 342 -9 63 19 134 72 157
117 27 52 28 137 1 183 -35 58 -81 81 -228 111 -75 15 -143 34 -152 41 -27 22
-15 63 25 83 49 25 160 18 234 -16 l54 -25 31 71 c30 68 31 72 14 85 -52 38
-263 63 -361 42z"/>
<path d="M9168 5515 c-65 -16 -158 -61 -158 -75 0 -5 14 -39 32 -74 l32 -65
50 26 c39 20 71 27 132 31 112 6 160 -21 179 -100 l7 -28 -119 0 c-75 0 -141
-6 -178 -15 -106 -28 -165 -96 -165 -190 1 -142 118 -226 292 -212 72 6 147
39 167 75 8 13 10 8 11 -25 l0 -43 96 0 96 0 -4 253 c-3 241 -4 254 -27 300
-29 58 -88 110 -150 132 -64 23 -221 28 -293 10z m272 -437 c0 -102 -143 -164
-236 -103 -21 14 -25 23 -22 58 4 60 41 77 166 77 l92 0 0 -32z"/>
<path d="M11037 5516 c-26 -7 -65 -27 -87 -45 l-40 -32 0 41 0 40 -100 0 -100
0 0 -350 0 -350 104 0 105 0 3 214 c3 198 5 217 24 243 31 42 100 74 154 71
l45 -2 3 92 3 92 -33 -1 c-18 0 -54 -6 -81 -13z"/>
<path d="M11408 5515 c-65 -16 -158 -61 -158 -75 0 -5 14 -39 32 -74 l32 -65
50 26 c39 20 71 27 132 31 112 6 160 -21 179 -100 l7 -28 -119 0 c-75 0 -141
-6 -178 -15 -106 -28 -165 -96 -165 -190 1 -142 118 -226 292 -212 72 6 147
39 167 75 8 13 10 8 11 -25 l0 -43 96 0 96 0 -4 253 c-3 241 -4 254 -27 300
-29 58 -88 110 -150 132 -64 23 -221 28 -293 10z m272 -437 c0 -102 -143 -164
-236 -103 -21 14 -25 23 -22 58 4 60 41 77 166 77 l92 0 0 -32z"/>
<path d="M12381 5515 c-24 -7 -61 -28 -82 -45 l-39 -31 0 41 0 40 -100 0 -100
0 0 -350 0 -350 105 0 105 0 0 205 c0 188 2 209 21 246 50 99 214 105 261 9
15 -30 18 -65 18 -247 l0 -213 105 0 105 0 0 203 c0 295 -16 365 -99 440 -68
62 -197 84 -300 52z"/>
<path d="M9820 5295 c0 -251 8 -304 53 -372 81 -120 294 -149 417 -58 l35 26
3 -35 3 -36 100 0 99 0 0 350 0 350 -105 0 -105 0 0 -202 c0 -179 -3 -208 -20
-246 -44 -98 -201 -110 -255 -19 -18 29 -20 55 -23 250 l-3 217 -100 0 -99 0
0 -225z"/>
<path d="M1158 4124 c-237 -43 -483 -201 -617 -397 -98 -144 -153 -316 -154
-487 -3 -303 150 -558 390 -651 70 -27 224 -37 303 -20 126 27 253 119 302
220 31 63 37 182 13 262 l-18 58 -42 -34 c-23 -19 -68 -47 -101 -62 -51 -24
-71 -28 -154 -28 -52 0 -113 6 -135 12 -109 34 -202 121 -247 233 -19 46 -23
74 -23 170 1 108 3 120 33 192 59 136 184 248 317 283 82 21 219 20 293 -3
199 -62 322 -271 378 -643 12 -83 17 -256 24 -849 7 -688 10 -753 29 -855 42
-226 124 -388 262 -521 102 -97 196 -142 339 -165 193 -30 443 61 612 222 35
32 63 59 64 59 1 0 4 -48 8 -106 17 -265 91 -516 197 -671 161 -234 556 -390
832 -329 91 20 192 69 214 102 9 14 14 26 12 28 -2 2 -54 8 -115 14 -128 13
-201 37 -294 97 -138 89 -226 215 -269 387 -46 177 -45 144 -48 1846 l-4 1623
-40 -51 c-50 -64 -123 -120 -252 -197 -129 -78 -175 -117 -212 -184 l-30 -54
-6 -995 c-6 -1081 -2 -1023 -62 -1153 -76 -167 -265 -255 -420 -197 -113 43
-192 128 -238 257 l-24 68 -6 760 c-5 619 -9 777 -22 851 -55 324 -109 471
-225 607 -137 162 -337 274 -542 307 -88 13 -229 11 -322 -6z"/>
<path d="M6235 4065 c-46 -64 -129 -128 -265 -206 -147 -83 -206 -155 -230
-278 -6 -34 -10 -414 -10 -1040 0 -1084 -1 -1060 62 -1189 45 -94 159 -207
259 -256 119 -58 213 -79 359 -78 102 0 143 5 225 26 332 87 567 306 656 612
71 249 78 658 13 913 -58 231 -198 417 -453 600 l-44 31 -24 -42 c-34 -60 -67
-93 -150 -149 -64 -43 -336 -199 -348 -199 -3 0 -6 295 -7 655 l-3 656 -40
-56z m401 -1429 c68 -32 117 -91 144 -176 21 -67 22 -81 17 -332 -5 -266 -17
-379 -54 -493 -43 -135 -110 -215 -200 -241 -108 -31 -188 1 -231 94 l-27 57
0 445 0 445 26 55 c35 76 70 114 131 144 66 33 126 34 194 2z"/>
<path d="M9836 4095 c-56 -86 -139 -152 -301 -240 -91 -50 -158 -114 -192
-184 l-28 -56 -5 -992 -5 -992 -60 -62 c-158 -162 -383 -249 -646 -249 -137 0
-193 14 -269 67 -61 43 -109 109 -139 187 -40 108 -52 93 179 223 360 202 484
296 580 440 66 99 91 180 97 318 6 130 -8 201 -63 313 -43 88 -136 190 -248
274 l-79 59 -24 -43 c-50 -89 -119 -140 -393 -293 -205 -114 -296 -175 -391
-263 -119 -110 -209 -258 -244 -404 -23 -90 -30 -324 -15 -444 40 -318 185
-560 400 -662 133 -64 192 -76 360 -76 158 0 244 13 407 65 200 64 361 156
493 283 27 25 51 46 54 46 3 0 6 -153 6 -341 l0 -341 33 48 c43 63 118 123
253 203 177 105 234 171 253 291 6 36 11 146 11 246 0 202 9 251 63 330 63 94
200 132 302 85 95 -44 123 -110 136 -319 10 -173 27 -257 70 -348 78 -167 218
-244 440 -244 190 0 331 53 436 163 32 34 68 75 80 92 l21 29 31 -62 c77 -153
213 -222 437 -222 224 0 389 82 500 247 21 32 41 62 45 66 3 4 24 -16 47 -46
78 -104 242 -203 402 -243 115 -29 377 -27 483 4 229 66 428 224 523 417 53
107 74 205 74 344 0 263 -90 376 -480 599 -69 39 -131 75 -137 80 -9 6 8 29
57 80 99 100 152 211 158 327 6 106 -24 214 -81 289 -13 18 -16 15 -46 -38
-70 -121 -183 -216 -354 -296 -82 -39 -226 -80 -279 -80 -24 0 -35 -18 -143
-224 -65 -124 -117 -228 -116 -233 3 -15 242 -144 606 -328 448 -226 485 -249
521 -318 45 -86 -121 -190 -349 -219 -82 -10 -109 -9 -187 4 -217 39 -356 157
-405 343 -23 91 -18 138 30 248 7 16 4 17 -21 11 -55 -13 -163 -76 -223 -130
-73 -67 -124 -163 -145 -276 -23 -119 -65 -189 -142 -234 -37 -22 -58 -27
-114 -27 -88 0 -138 24 -165 78 -19 39 -20 65 -25 890 -4 739 -7 847 -19 825
-46 -82 -125 -147 -284 -237 -118 -66 -178 -122 -215 -201 l-27 -57 -5 -545
c-5 -528 -6 -546 -26 -591 -50 -108 -129 -163 -234 -162 -144 0 -177 45 -191
259 -21 319 -64 450 -187 574 -37 37 -80 76 -96 87 l-29 20 50 61 c131 162
150 310 64 487 -44 90 -135 188 -255 275 l-69 50 -28 -47 c-32 -57 -73 -96
-154 -151 -57 -38 -329 -192 -340 -192 -3 0 -6 296 -7 657 -3 652 -3 657 -22
628z m-1350 -1459 c99 -46 156 -156 134 -259 -33 -155 -154 -277 -413 -415
l-78 -42 3 258 c3 253 3 258 29 312 35 76 70 114 131 144 66 33 126 34 194 2z
m1744 8 c57 -23 80 -60 80 -126 0 -40 -7 -65 -29 -103 -41 -72 -143 -162 -247
-219 -49 -27 -109 -60 -133 -74 l-43 -25 4 174 c4 193 13 229 78 303 70 79
193 109 290 70z"/>
<path d="M11435 3840 l-190 -190 195 -195 195 -195 192 192 193 193 -192 192
c-106 106 -195 193 -198 193 -3 0 -91 -86 -195 -190z"/>
<path d="M14673 3659 c-46 -63 -129 -126 -268 -204 -103 -58 -185 -140 -209
-212 -9 -26 -20 -85 -23 -129 l-6 -82 -36 -6 c-56 -9 -104 -48 -139 -114 -18
-33 -32 -63 -32 -66 0 -3 47 -6 104 -6 l105 0 3 -687 c4 -668 4 -690 25 -765
33 -116 70 -187 132 -249 85 -85 191 -119 370 -119 236 0 414 103 527 305 l31
55 38 -62 c155 -254 471 -368 741 -267 70 26 177 125 234 215 22 35 40 68 40
74 0 5 5 10 10 10 6 0 10 -6 10 -13 0 -27 70 -155 109 -199 102 -115 297 -154
506 -101 89 22 172 70 242 140 l63 63 0 -257 0 -256 28 39 c47 65 133 135 247
204 162 97 198 128 237 207 l33 68 5 595 5 595 28 60 c35 76 69 111 132 141
126 60 271 -7 330 -152 18 -45 19 -85 26 -539 6 -456 8 -495 27 -568 43 -157
115 -251 235 -308 229 -107 470 -33 572 176 24 48 51 162 42 172 -3 2 -20 -3
-39 -13 -73 -39 -206 -14 -250 46 -31 44 -38 125 -38 470 0 489 -22 648 -114
835 -68 138 -204 284 -385 413 l-43 32 -39 -60 c-54 -84 -139 -144 -459 -324
-295 -167 -440 -316 -520 -535 -46 -126 -60 -228 -60 -445 0 -215 -8 -260 -62
-340 -60 -91 -153 -129 -260 -107 -62 13 -101 46 -120 102 -9 25 -14 279 -18
958 -5 901 -5 923 -23 886 -28 -59 -106 -153 -174 -209 -97 -80 -246 -169
-538 -319 -484 -248 -675 -404 -790 -640 -67 -140 -87 -225 -90 -397 -4 -153
-12 -195 -58 -267 -54 -86 -119 -117 -228 -111 -80 4 -114 24 -144 84 -19 38
-20 62 -23 702 l-3 662 51 0 c28 0 66 6 84 14 39 16 90 75 116 134 l19 42
-134 0 -135 0 -2 343 -3 343 -42 -57z m1577 -1476 c0 -269 -4 -496 -10 -533
-26 -164 -126 -270 -255 -270 -61 0 -103 19 -146 66 -43 49 -73 108 -96 194
-22 81 -24 322 -4 425 33 168 105 303 212 398 62 54 265 187 287 187 9 0 12
-100 12 -467z"/>
<path d="M4971 3146 c-70 -121 -183 -216 -354 -296 -82 -39 -226 -80 -279 -80
-24 0 -35 -18 -142 -222 -64 -123 -117 -227 -117 -232 -1 -15 221 -136 606
-331 448 -226 485 -249 521 -318 45 -86 -121 -190 -349 -219 -82 -10 -109 -9
-187 4 -217 39 -356 157 -405 343 -23 91 -18 138 30 248 7 16 4 17 -21 11 -55
-13 -163 -76 -223 -130 -101 -92 -161 -244 -147 -375 12 -122 95 -267 203
-353 73 -59 215 -128 313 -152 116 -29 377 -27 483 4 229 66 428 224 523 417
53 107 74 205 74 344 0 263 -90 376 -480 599 -69 39 -131 75 -137 80 -9 6 8
29 57 80 99 100 152 211 158 327 6 106 -24 214 -81 289 -13 18 -16 15 -46 -38z"/>
</g>
</svg>
